<svg xmlns="http://www.w3.org/2000/svg" viewBox="0 0 65.54 65.81"><defs><style>.cls-1{fill:#e35;}.cls-2{fill:#fff;}</style></defs><title>Asset 1</title><g id="Layer_2" data-name="Layer 2"><g id="Layer_1-2" data-name="Layer 1"><path id="Path_340" data-name="Path 340" class="cls-1" d="M12.75,6.57c14.33-10.9,34.91-7.93,46,6.62s8.41,35.17-5.91,46.06-34.91,7.92-46-6.62S-1.58,17.46,12.75,6.57Z"/><path id="Icon_awesome-heart" data-name="Icon awesome-heart" class="cls-2" d="M45,21.81a8,8,0,0,0-11,.62L32.85,23.6l-1.14-1.21a8,8,0,0,0-10.94-1A8.43,8.43,0,0,0,19.7,33.28c.09.11.18.22.28.32L31.14,45.53a1.85,1.85,0,0,0,2.6.1l.06-.06L45.36,34a8.42,8.42,0,0,0,0-11.92Z"/></g></g></svg>